<svg t="1592462678286" class="icon" viewBox="0 0 1024 1024" version="1.1"
     xmlns="http://www.w3.org/2000/svg" p-id="2045"
     width="200" height="200">
  <path
    d="M381.44910222 760.18005333c-101.10634667 0-196.16199111-39.3728-267.65539555-110.86620444s-110.86506667-166.54791111-110.86506667-267.65425778 39.3728-196.16199111 110.86620445-267.65539556 166.54791111-110.86620445 267.65539555-110.86620444 196.16085333 39.3728 267.65425778 110.86620444c71.49340445 71.49340445 110.86734222 166.54791111 110.86734222 267.65539556s-39.3728 196.16199111-110.86734222 267.65425778c-71.49454222 71.49340445-166.54791111 110.86506667-267.65539556 110.86506666z m0-715.12746666c-89.91061333 0-174.43953778 35.01397333-238.01742222 98.59072-63.57560889 63.57674667-98.58958222 148.10680889-98.58958222 238.01742222s35.01397333 174.44067555 98.58958222 238.01514666c63.57674667 63.57674667 148.10680889 98.59072 238.01742222 98.59072s174.44067555-35.01283555 238.01628445-98.59072c63.57674667-63.57447111 98.59072-148.10453333 98.59072-238.01514666s-35.01283555-174.44067555-98.59072-238.01742222c-63.57560889-63.57674667-148.10453333-98.58958222-238.01628445-98.58958222z m272.81635556 610.00704c-10.40384 10.40497778-2.84558222 34.83534222 16.88462222 54.56668444l286.53568 286.53568c19.73020445 19.72906667 44.16056889 27.2896 54.56782222 16.88348444 10.40497778-10.40611555 2.84672-34.83648-16.88462222-54.56782222L708.83441778 671.94311111c-19.72906667-19.73020445-44.16056889-27.2896-54.56782223-16.88462222z"
    fill="currentColor"></path>
</svg>
