<svg t="1592643868658" class="icon" viewBox="0 0 1024 1024" version="1.1"
     xmlns="http://www.w3.org/2000/svg" p-id="13722"
     width="200" height="200">
  <path
    d="M320.64 466.02666667h620.8c26.34666667 0 47.78666667 21.33333333 47.78666667 47.78666666 0 26.34666667-21.33333333 47.78666667-47.78666667 47.78666667h-620.8c-26.34666667 0-47.78666667-21.33333333-47.78666667-47.78666667 0-26.34666667 21.33333333-47.78666667 47.78666667-47.78666666zM81.81333333 466.02666667h47.78666667c26.34666667 0 47.78666667 21.33333333 47.78666667 47.78666666 0 26.34666667-21.33333333 47.78666667-47.78666667 47.78666667h-47.78666667c-26.34666667 0-47.78666667-21.33333333-47.78666666-47.78666667 0.10666667-26.34666667 21.44-47.78666667 47.78666666-47.78666666zM81.81333333 752.53333333h859.52c26.34666667 0 47.78666667 21.33333333 47.78666667 47.78666667 0 26.34666667-21.33333333 47.78666667-47.78666667 47.78666667H81.81333333C55.46666667 848.10666667 34.13333333 826.66666667 34.13333333 800.32c0-26.34666667 21.33333333-47.78666667 47.68-47.78666667zM81.81333333 179.52h859.52c26.34666667 0 47.78666667 21.33333333 47.78666667 47.78666667 0 26.34666667-21.33333333 47.78666667-47.78666667 47.78666666H81.81333333c-26.34666667 0-47.78666667-21.33333333-47.78666666-47.78666666 0.10666667-26.34666667 21.44-47.78666667 47.78666666-47.78666667z"
    fill="currentColor"></path>
</svg>
