<svg t="1592643042210" class="icon" viewBox="0 0 1024 1024" version="1.1"
     xmlns="http://www.w3.org/2000/svg" p-id="1935"
     width="200" height="200">
  <path
    d="M516.01390706 536.35239481c-1.32380331-0.23053085-2.64644267-0.31785301-4.05873209-0.31785302-3.66170795 0-7.27917227 0-10.89663772 0.08732218-127.24114887-5.79120355-228.98074397-112.05175637-228.98074397-241.82990394 0-133.49341298 107.65188437-242.10467726 239.92162418-242.10467726 132.29186048 0 239.92046023 108.61126429 239.92046023 242.10467726C751.91987769 426.45342094 646.47549611 534.19146354 516.01390706 536.35239481L516.01390706 536.35239481zM511.99941746 3.74329458c-158.74231637 0-287.92318066 130.31838037-287.92318066 290.54866659 0 114.27090205 65.73726265 213.31748181 161.01385557 260.74620587-66.68616363 20.60336469-127.76973881 57.49871161-178.4189019 108.65434283-81.5984549 82.25045959-150.51307805 215.93132487-150.51307804 332.3189157 0 13.37891499 10.76507193 24.24411591 24.00077824 24.2441159s24.00077824-10.86520093 24.00077824-24.2441159c0-103.45925859 63.88486941-224.95344754 136.416958-298.1363769 69.88448199-70.52484381 162.00699904-110.49625714 260.43766784-113.26611569 3.66287189 0.10012899 7.34670165 0.23169479 10.98628779 0.23169479 158.7632731 0 287.92318066-130.31721643 287.92318066-290.5486666C799.92259811 134.06167609 670.7626917 3.74329458 511.99941746 3.74329458L511.99941746 3.74329458zM817.37072413 663.64826624c-9.39586105-9.48434717-24.57244672-9.48434717-33.97180075 0-9.33066069 9.43195477-9.33066069 24.79599161 0.04424363 34.22561735 72.48901006 73.18292935 136.44024377 194.67711829 136.44024376 298.13637689 0 13.37891499 10.7208283 24.24411591 23.97982038 24.24411591 13.2799488 0 23.97865643-10.86520093 23.97865642-24.24411591C967.84072363 879.62383474 898.92726443 745.94296946 817.37072413 663.64826624L817.37072413 663.64826624zM817.37072413 663.64826624"
    fill="currentColor" stroke-width="11" stroke="currentColor"></path>
</svg>
