<svg t="1592450373614" class="icon" viewBox="0 0 1024 1024" version="1.1"
     xmlns="http://www.w3.org/2000/svg" p-id="1924"
     width="200" height="200">
  <path
    d="M37.47081482 541.12711111h659.00088888c16.14127408 0 29.12711111-12.98583703 29.12711112-29.12711111s-12.98583703-29.12711111-29.12711112-29.12711111H37.47081482c-16.01991111 0-29.12711111 13.1072-29.12711112 29.12711111s13.1072 29.12711111 29.12711112 29.12711111zM986.52918518 482.87288889H815.40740741c-16.14127408 0-29.12711111 12.98583703-29.12711111 29.12711111s12.98583703 29.12711111 29.12711111 29.12711111h171.12177777c16.01991111 0 29.12711111-13.1072 29.12711112-29.12711111s-13.1072-29.12711111-29.12711112-29.12711111zM35.8930963 354.22814815c15.17037037 0 27.54939259-12.37902222 27.54939259-27.5493926V150.5810963c0-48.1810963 39.07887408-87.13860741 87.13860741-87.13860741h176.09765925c15.17037037 0 27.54939259-12.37902222 27.5493926-27.54939259S341.84912592 8.3437037 326.67875555 8.3437037H150.5810963C72.05925925 8.3437037 8.3437037 72.05925925 8.3437037 150.5810963v176.09765925c0 15.17037037 12.37902222 27.54939259 27.5493926 27.5493926zM873.4189037 8.3437037H697.32124445c-15.17037037 0-27.54939259 12.37902222-27.5493926 27.5493926s12.37902222 27.54939259 27.5493926 27.54939259h176.09765925c48.1810963 0 87.13860741 39.07887408 87.13860741 87.13860741v176.09765925c0 15.17037037 12.37902222 27.54939259 27.54939259 27.5493926s27.54939259-12.37902222 27.5493926-27.5493926V150.5810963C1015.6562963 72.05925925 951.94074075 8.3437037 873.4189037 8.3437037zM988.1069037 669.77185185c-15.17037037 0-27.54939259 12.37902222-27.54939259 27.5493926v176.09765925c0 48.1810963-39.07887408 87.13860741-87.13860741 87.13860741H697.32124445c-15.17037037 0-27.54939259 12.37902222-27.5493926 27.54939259s12.37902222 27.54939259 27.5493926 27.5493926H876.81706667C953.76118518 1013.83585185 1015.6562963 950.84847408 1015.6562963 873.4189037V697.32124445c0-15.17037037-12.37902222-27.54939259-27.5493926-27.5493926zM326.67875555 960.55751111H150.5810963c-48.1810963 0-87.13860741-39.07887408-87.13860741-87.13860741V697.32124445c0-15.17037037-12.37902222-27.54939259-27.54939259-27.5493926S8.3437037 682.15087408 8.3437037 697.32124445v176.09765925C8.3437037 951.94074075 72.05925925 1015.6562963 150.5810963 1015.6562963h176.09765925c15.17037037 0 27.54939259-12.37902222 27.5493926-27.5493926s-12.37902222-27.54939259-27.5493926-27.54939259z"
    fill="currentColor"></path>
</svg>
