<?xml version="1.0" standalone="no"?><!DOCTYPE svg PUBLIC
  "-//W3C//DTD SVG 1.1//EN" "http://www.w3.org/Graphics/SVG/1.1/DTD/svg11.dtd">
<svg t="1594081024444" class="icon" viewBox="0 0 1024 1024" version="1.1"
     xmlns="http://www.w3.org/2000/svg" p-id="2163"
     width="200" height="200">
  <path
    d="M849.5 90.125H174.5C128.09375 90.125 90.125 128.09375 90.125 174.5v675C90.125 895.90625 128.09375 933.875 174.5 933.875h675c46.40625 0 84.375-37.96875 84.375-84.375V174.5C933.875 128.09375 895.90625 90.125 849.5 90.125z m42.1875 759.375c0 23.26657104-18.92092896 42.1875-42.1875 42.1875H174.5c-23.26657104 0-42.1875-18.92092896-42.1875-42.1875V174.5c0-23.26657104 18.92092896-42.1875 42.1875-42.1875h675c23.26657104 0 42.1875 18.92092896 42.1875 42.1875v675z"
    fill="currentColor"></path>
  <path
    d="M813.24160156 309.31982422c-9.13535156-6.50214844-21.90410156-4.47714844-29.84677734 3.45410156l-351.48339844 351.49482421L240.90839844 473.26660157c-8.12197266-8.12285156-21.28447266-10.35-30.50947266-3.52177735-11.27285156 8.34785156-12.13857422 24.51357422-2.59892578 34.05410156l208.19267578 208.19267578c8.75214844 8.75214844 23.07392578 8.75214844 31.81464844 0l368.36982422-368.37070312c9.65302734-9.62929687 8.67480469-26.03232422-2.93554688-34.30107422z"
    fill="currentColor"></path>
</svg>
