<?xml version="1.0" standalone="no"?><!DOCTYPE svg PUBLIC
  "-//W3C//DTD SVG 1.1//EN" "http://www.w3.org/Graphics/SVG/1.1/DTD/svg11.dtd">
<svg t="1594081024444" class="icon" viewBox="0 0 1024 1024" version="1.1"
     xmlns="http://www.w3.org/2000/svg" p-id="2163"
     width="200" height="200">
  <path
    d="M849.5 90.125H174.5C128.09375 90.125 90.125 128.09375 90.125 174.5v675C90.125 895.90625 128.09375 933.875 174.5 933.875h675c46.40625 0 84.375-37.96875 84.375-84.375V174.5C933.875 128.09375 895.90625 90.125 849.5 90.125z m42.1875 759.375c0 23.26657104-18.92092896 42.1875-42.1875 42.1875H174.5c-23.26657104 0-42.1875-18.92092896-42.1875-42.1875V174.5c0-23.26657104 18.92092896-42.1875 42.1875-42.1875h675c23.26657104 0 42.1875 18.92092896 42.1875 42.1875v675z"
    fill="currentColor"></path>
</svg>
