<svg t="1592643049400" class="icon" viewBox="0 0 1024 1024" version="1.1"
     xmlns="http://www.w3.org/2000/svg" p-id="2210"
     width="200" height="200">
  <path
    d="M788.6 224.2h176.9v730.1c0 37.7-28.7 66.4-66.4 66.4H191.3c-37.7 0-66.4-28.7-66.4-66.4V69.6c0-37.7 28.7-66.4 66.4-66.4h553.2v176.9h44.4v44.1h-0.3z m-66.4-22V25.3H191.3c-24.5 0-44.4 19.9-44.4 44.4v884.7c0 24.5 19.9 44.4 44.4 44.4h707.8c24.5 0 44.4-19.9 44.4-44.4V246.3h-177v-44.4h-44.4v0.3z"
    fill="currentColor" stroke-width="11" stroke="currentColor"></path>
  <path
    d="M213.4 887.9h663.7v44.4H213.4v-44.4zM213.4 777.4h663.7v44.4H213.4zM213.4 666.6h663.7V711H213.4v-44.4z"
    fill="currentColor" stroke-width="11" stroke="currentColor"></path>
  <path
    d="M102.9 113.7h353.9c24.5 0 44.4 19.9 44.4 44.4V512c0 24.5-19.9 44.4-44.4 44.4H102.9c-24.5 0-44.4-19.9-44.4-44.4V157.8c0-24.1 19.9-44.1 44.4-44.1z"
    fill="currentColor"></path>
  <path
    d="M286.4 385.2h-42v-14.8c-0.3-10.3 1.8-20.5 6.3-29.6 5.1-9.4 12.4-17.5 20.8-24.2 8.5-6.3 16-14.2 22.3-22.6 3.6-5.7 5.7-12.1 5.7-19 0.3-7.2-2.7-14.2-8.2-18.7-6.9-5.1-15.1-7.5-23.6-6.9-20.5 0.3-40.5 8.2-55.6 22.3v-49.2c18.7-10 39.6-15.1 60.7-14.8 20.2-1.2 40.2 4.8 56.5 16.6 13.3 10.9 20.5 27.2 19.9 44.4 0 11.8-2.7 23.3-8.2 33.8-7.2 12.4-16.9 23.2-28.4 31.7-8.2 6-15.4 13.3-21.4 21.4-3.3 5.7-4.8 12.1-4.8 18.4v11.2z m-20.8 23.2c7.5-0.3 15.1 2.7 20.8 7.9 5.4 4.8 8.8 11.8 8.5 19 0 7.2-3 13.9-8.5 18.7-5.7 5.1-13 8.2-20.8 7.9-7.5 0.3-15.1-2.7-20.8-7.9-5.4-4.5-8.5-11.5-8.5-18.4 0-7.2 3-14.2 8.5-18.7 5.7-5.8 13-8.8 20.8-8.5z"
    fill="#FFFFFF"></path>
</svg>
