<svg t="1592643046571" class="icon" viewBox="10 0 1024 1024" version="1.1"
     xmlns="http://www.w3.org/2000/svg" p-id="2072"
     width="200" height="200">
  <path
    d="M391.293076 44.66408931c75.37733885-63.62362177 185.50491785-63.62362177 260.8822567 0l321.90851687 271.71081046c65.41871483 55.21844366 73.79213359 153.13524726 18.7021081 218.70723543a154.86129831 154.86129831 0 0 1-46.8243123 37.63481664 35.70302032 35.70302032 0 0 1 4.60648499 17.60157796c0 291.79099767-137.72092116 429.83089308-428.83392602 429.83089308-291.11438567 0-428.83392601-138.0398954-428.83392601-429.83089308 0-6.38776965 1.66805571-12.3833805 4.59129575-17.57672283C48.03261748 546.82894809 14.27658272 494.91899902 14.27658272 435.1023554c0-45.78592 20.16718023-89.23545734 55.10797641-118.72745563zM164.37121849 590.24672608v0.07180372c0 252.22576558 105.72131594 358.19287118 357.36160502 358.19287118 251.64166992 0 357.361605-105.96572477 357.36160499-358.19287118l0.0027617-0.07318455a154.73702263 154.73702263 0 0 1-4.76390085 0.07318455H169.13511934c-1.5934903 0-3.18007641-0.02347429-4.76252-0.07180372zM606.13671882 99.4599957c-48.77405955-41.1683883-120.03235023-41.1683883-168.80502895 0L115.42179216 371.17218699a83.65686043 83.65686043 0 0 0-29.67288843 63.93016841c0 46.15874702 37.33241249 83.57815249 83.38483477 83.5781525H874.33328935a83.30612685 83.30612685 0 0 0 63.78103762-29.74331133c29.6646034-35.30809985 25.15477728-88.03274499-10.07047212-117.76500958z"
    fill="currentColor"></path>
</svg>
