<svg t="1592450377356" class="icon" viewBox="26 12 1000 1000" version="1.1"
     xmlns="http://www.w3.org/2000/svg" p-id="2061"
     width="200" height="200">
  <path
    d="M530.58048 59.61728c-192.38912 0-348.91264 154.09152-348.91264 343.49568 0 84.21888 56.28928 221.15328 146.8928 357.376 39.42912 59.27424 82.06848 113.1008 120.07936 151.53152 41.9072 42.38848 69.80608 57.49248 81.94048 57.49248 12.12928 0 40.02304-15.104 81.93536-57.49248 38.00064-38.44096 80.64-92.25728 120.064-151.52128 90.5984-136.22784 146.88256-273.16736 146.88256-357.38624C879.46752 213.70368 722.95424 59.61728 530.58048 59.61728L530.58048 59.61728zM530.58048 1009.16224c-28.02688 0-64.0512-22.66112-110.13632-69.26848-39.74144-40.19712-84.096-96.10752-124.89216-157.44-96.13312-144.5376-153.5232-286.34624-153.5232-379.3408 0-211.26144 174.30528-383.13984 388.5568-383.13984 214.23616 0 388.53632 171.87328 388.53632 383.13984 0 92.99456-57.3952 234.79808-153.5232 379.3408-40.79616 61.33248-85.14048 117.24288-124.88192 157.44C594.62656 986.50112 558.61248 1009.16224 530.58048 1009.16224L530.58048 1009.16224z"
    fill="currentColor"></path>
  <path
    d="M530.57024 257.91488c-83.4304 0-151.30112 66.75968-151.30112 148.81792 0 82.05824 67.87072 148.82304 151.30112 148.82304 40.11008 0 78.06464-16.14336 106.87488-45.44 28.65664-29.14816 44.44672-67.26144 44.44672-107.31008C681.89184 321.5616 615.41376 257.91488 530.57024 257.91488L530.57024 257.91488zM530.57024 595.18976c-105.2928 0-190.94528-84.53632-190.94528-188.45696s85.65248-188.46208 190.94528-188.46208c51.08224 0 98.91328 18.78528 134.69184 52.90496 36.29056 34.60608 56.2688 81.3568 56.2688 131.62496 0 50.51392-19.81952 98.49856-55.808 135.11168C629.39136 574.85312 581.39648 595.18976 530.57024 595.18976L530.57024 595.18976z"
    fill="currentColor"></path>
</svg>
